<?xml version="1.0" encoding="utf-8"?>
<svg viewBox="0 0 24 24" xmlns="http://www.w3.org/2000/svg">
  <ellipse style="stroke: rgb(0, 0, 0); stroke-width: 0px; fill: rgb(185, 213, 219);" cx="12.003" cy="11.941" rx="12.003" ry="11.977"/>
  <path d="M 9.616 9.646 L 9.616 18.337 L 15.306 18.337 L 15.306 15.967 C 15.306 15.743 15.384 15.556 15.54 15.405 C 15.695 15.253 15.889 15.178 16.118 15.177 L 18.557 15.177 L 18.557 9.646 L 9.616 9.646 Z M 7.991 18.337 L 7.991 9.626 C 7.991 9.192 8.154 8.824 8.479 8.52 C 8.804 8.218 9.19 8.067 9.637 8.067 L 18.557 8.067 C 19.004 8.067 19.387 8.221 19.705 8.53 C 20.024 8.84 20.182 9.211 20.182 9.646 L 20.182 15.315 C 20.182 15.525 20.141 15.726 20.061 15.918 C 19.979 16.109 19.864 16.277 19.715 16.421 L 16.585 19.462 C 16.436 19.608 16.264 19.72 16.067 19.799 C 15.871 19.878 15.664 19.917 15.448 19.917 L 9.616 19.917 C 9.17 19.917 8.787 19.763 8.469 19.453 C 8.15 19.144 7.991 18.772 7.991 18.337 M 3.948 7.474 C 3.866 7.039 3.954 6.647 4.211 6.298 C 4.469 5.95 4.822 5.736 5.268 5.656 L 14.086 4.135 C 14.52 4.056 14.912 4.145 15.265 4.403 C 15.617 4.66 15.848 4.998 15.956 5.419 L 16.098 6.032 C 16.166 6.295 16.125 6.506 15.976 6.664 C 15.827 6.822 15.651 6.914 15.448 6.94 C 15.244 6.966 15.052 6.93 14.869 6.832 C 14.686 6.734 14.561 6.552 14.493 6.288 L 14.351 5.696 L 5.552 7.217 L 6.772 14.011 C 6.813 14.236 6.772 14.436 6.65 14.614 C 6.527 14.791 6.351 14.9 6.122 14.94 C 5.891 14.98 5.688 14.937 5.511 14.812 C 5.335 14.687 5.227 14.512 5.186 14.287 L 3.948 7.474 Z" style="fill: rgb(0, 147, 147);"/>
</svg>